<svg xmlns="http://www.w3.org/2000/svg" width="1366" height="1949.559" viewBox="0 0 1366 1949.559">
  <g id="Group_443" data-name="Group 443" transform="translate(0 -1150.442)">
    <path id="Subtraction_1" data-name="Subtraction 1" d="M707,884.074h0a94.9,94.9,0,0,1-30.794-9.582,97.549,97.549,0,0,1-27.251-20.765l-373.6-404.053a98.589,98.589,0,0,1-15.345-21.853,94.921,94.921,0,0,1-8.452-23.813,96.409,96.409,0,0,1-1.939-24.533,98.745,98.745,0,0,1,14.146-46.268,96.406,96.406,0,0,1,15.327-19.255,94.924,94.924,0,0,1,20.323-15.015,98.6,98.6,0,0,1,24.941-9.536L707,199.351Z" transform="translate(659 1619.156)" fill="rgba(0,136,255,0.38)"/>
    <path id="Subtraction_3" data-name="Subtraction 3" d="M2206.775,974.971V303.328l322.34,38.194a98.63,98.63,0,0,1,26.028,6.724A94.86,94.86,0,0,1,2577.13,361a98.146,98.146,0,0,1,37.175,87.067,94.85,94.85,0,0,1-5.992,24.7,98.622,98.622,0,0,1-13.144,23.449L2261.562,938.936a97.515,97.515,0,0,1-25.066,23.413,95,95,0,0,1-29.72,12.622Z" transform="translate(-2205.775 847.114)" fill="rgba(0,136,255,0.38)"/>
    <path id="Subtraction_5" data-name="Subtraction 5" d="M361.442,197.174H140V-58.994L298.657-96.331A99.316,99.316,0,0,1,321.364-99,95.1,95.1,0,0,1,344.4-96.17a95.761,95.761,0,0,1,21.064,8.014,97.97,97.97,0,0,1,18.42,12.483,99.023,99.023,0,0,1,15.107,16.237A97.887,97.887,0,0,1,409.9-40.648a95.761,95.761,0,0,1,6.493,21.02A95.056,95.056,0,0,1,417.85,2.96a99.1,99.1,0,0,1-4.213,23.489l-52.2,170.725Z" transform="translate(-140 2902.826)" fill="rgba(0,136,255,0.38)"/>
  </g>
</svg>
