<svg xmlns="http://www.w3.org/2000/svg" width="1366" height="2295" viewBox="0 0 1366 2295">
  <defs>
    <style>
      .cls-1 {
        fill: #fff;
        stroke: #fff;
      }

      .cls-2 {
        fill: rgba(0,136,255,0.38);
      }

      .cls-3 {
        stroke: none;
      }

      .cls-4 {
        fill: none;
      }
    </style>
  </defs>
  <g id="Group_443" data-name="Group 443" transform="translate(0 -888)">
    <g id="Rectangle_389" data-name="Rectangle 389" class="cls-1" transform="translate(0 888)">
      <rect class="cls-3" width="1366" height="2295"/>
      <rect class="cls-4" x="0.5" y="0.5" width="1365" height="2294"/>
    </g>
    <path id="Subtraction_5" data-name="Subtraction 5" class="cls-2" d="M221.749,295.175H0V40.006L158.657,2.669A99.265,99.265,0,0,1,181.364,0a95.014,95.014,0,0,1,44.1,10.843,97.985,97.985,0,0,1,18.42,12.483,99.1,99.1,0,0,1,15.107,16.236,98.02,98.02,0,0,1,10.912,18.789,95.027,95.027,0,0,1,7.944,43.609,99.119,99.119,0,0,1-4.212,23.489l-51.89,169.724Z" transform="translate(0 2887.826)"/>
  </g>
</svg>
