<svg xmlns="http://www.w3.org/2000/svg" width="1395.99" height="792.074" viewBox="0 0 1395.99 792.074">
  <defs>
    <style>
      .cls-1 {
        fill: #fff;
        stroke: #333;
      }

      .cls-2 {
        fill: rgba(0,136,255,0.38);
      }

      .cls-3 {
        stroke: none;
      }

      .cls-4 {
        fill: none;
      }
    </style>
  </defs>
  <g id="Group_443" data-name="Group 443" transform="translate(29.99 -2736)">
    <g id="Rectangle_389" data-name="Rectangle 389" class="cls-1" transform="translate(0 2736)">
      <rect class="cls-3" width="1366" height="644"/>
      <rect class="cls-4" x="0.5" y="0.5" width="1365" height="643"/>
    </g>
    <path id="Subtraction_4" data-name="Subtraction 4" class="cls-2" d="M-3985.192,5685.918h-.011a96.562,96.562,0,0,1-24.774-3.218,94.859,94.859,0,0,1-23.643-9.856h29.99V5001.676l158.657-37.337a99.277,99.277,0,0,1,22.707-2.669,95.079,95.079,0,0,1,23.041,2.83,95.718,95.718,0,0,1,21.065,8.013,98,98,0,0,1,18.42,12.482,99.083,99.083,0,0,1,15.107,16.236,97.968,97.968,0,0,1,10.911,18.789,95.758,95.758,0,0,1,6.492,21.021,95.031,95.031,0,0,1,1.451,22.588,99.143,99.143,0,0,1-4.213,23.492l-162.072,530.111a95.69,95.69,0,0,1-36.5,50.79,97.608,97.608,0,0,1-26.983,13.331A98.628,98.628,0,0,1-3985.192,5685.918Z" transform="translate(4003.631 -2157.844)"/>
  </g>
</svg>
