<svg xmlns="http://www.w3.org/2000/svg" width="1366" height="1505" viewBox="0 0 1366 1505">
  <defs>
    <style>
      .cls-1 {
        fill: #fff;
        stroke: #fff;
      }

      .cls-2 {
        fill: rgba(0,136,255,0.38);
      }

      .cls-3 {
        stroke: none;
      }

      .cls-4 {
        fill: none;
      }
    </style>
  </defs>
  <g id="Group_443" data-name="Group 443" transform="translate(0 -888)">
    <g id="Rectangle_389" data-name="Rectangle 389" class="cls-1" transform="translate(0 888)">
      <rect class="cls-3" width="1366" height="1505"/>
      <rect class="cls-4" x="0.5" y="0.5" width="1365" height="1504"/>
    </g>
    <path id="Subtraction_5" data-name="Subtraction 5" class="cls-2" d="M221.749,295.174H0V40.005L158.657,2.669A99.259,99.259,0,0,1,181.363,0a95.058,95.058,0,0,1,44.106,10.843,97.984,97.984,0,0,1,18.42,12.482A99.049,99.049,0,0,1,259,39.56a97.938,97.938,0,0,1,10.912,18.788,95.033,95.033,0,0,1,7.944,43.61,99.14,99.14,0,0,1-4.213,23.492l-51.89,169.723Z" transform="translate(0 2097.629)"/>
  </g>
</svg>
