<svg xmlns="http://www.w3.org/2000/svg" width="1366" height="1889.383" viewBox="0 0 1366 1889.383">
  <defs>
    <style>
      .cls-1 {
        fill: #fff;
        stroke: #fff;
      }

      .cls-2 {
        fill: rgba(0,136,255,0.38);
      }

      .cls-3 {
        stroke: none;
      }

      .cls-4 {
        fill: none;
      }
    </style>
  </defs>
  <g id="Group_443" data-name="Group 443" transform="translate(0 -888)">
    <g id="Rectangle_389" data-name="Rectangle 389" class="cls-1" transform="translate(0 888)">
      <rect class="cls-3" width="1366" height="1889"/>
      <rect class="cls-4" x="0.5" y="0.5" width="1365" height="1888"/>
    </g>
    <path id="Subtraction_5" data-name="Subtraction 5" class="cls-2" d="M221.747,295.174H0V40.006L158.656,2.669A99.28,99.28,0,0,1,181.364,0a95.036,95.036,0,0,1,44.1,10.844,97.987,97.987,0,0,1,18.42,12.482,99.023,99.023,0,0,1,15.107,16.237A97.936,97.936,0,0,1,269.9,58.352a95.019,95.019,0,0,1,7.945,43.609,99.138,99.138,0,0,1-4.213,23.49L221.748,295.173Z" transform="translate(0 2482.209)"/>
  </g>
</svg>
