<svg xmlns="http://www.w3.org/2000/svg" width="1366" height="1774" viewBox="0 0 1366 1774">
  <defs>
    <style>
      .cls-1 {
        fill: #fff;
        stroke: #333;
      }

      .cls-2 {
        fill: rgba(0,136,255,0.38);
      }

      .cls-3 {
        stroke: none;
      }

      .cls-4 {
        fill: none;
      }
    </style>
  </defs>
  <g id="Group_443" data-name="Group 443" transform="translate(0 -1325)">
    <g id="Rectangle_389" data-name="Rectangle 389" class="cls-1" transform="translate(0 1325)">
      <rect class="cls-3" width="1366" height="1774"/>
      <rect class="cls-4" x="0.5" y="0.5" width="1365" height="1773"/>
    </g>
    <path id="Subtraction_2" data-name="Subtraction 2" class="cls-2" d="M-3998,5685.073h0a94.922,94.922,0,0,1-30.794-9.582,97.55,97.55,0,0,1-27.25-20.765l-373.6-404.052a98.606,98.606,0,0,1-15.345-21.853,94.93,94.93,0,0,1-8.452-23.813,96.4,96.4,0,0,1-1.939-24.533,98.589,98.589,0,0,1,4.195-24.014,98.616,98.616,0,0,1,9.95-22.254,96.409,96.409,0,0,1,15.327-19.255,94.932,94.932,0,0,1,20.323-15.016,98.614,98.614,0,0,1,24.941-9.536L-3998,5000.351Z" transform="translate(5364 -3190.844)"/>
    <path id="Subtraction_3" data-name="Subtraction 3" class="cls-2" d="M-4563,5419.622h0V5010h343.145l-280.359,372.049a96.946,96.946,0,0,1-28.661,25.62A95.286,95.286,0,0,1-4563,5419.622Z" transform="translate(4563 -3683)"/>
    <path id="Subtraction_5" data-name="Subtraction 5" class="cls-2" d="M-4215.251,4997.174H-4437V4742.006l158.658-37.337a99.277,99.277,0,0,1,22.706-2.668,95.069,95.069,0,0,1,23.042,2.831,95.689,95.689,0,0,1,21.064,8.012,97.927,97.927,0,0,1,18.419,12.482A99.048,99.048,0,0,1-4178,4741.561a97.9,97.9,0,0,1,10.912,18.789,95.736,95.736,0,0,1,6.492,21.021,95.022,95.022,0,0,1,1.451,22.589,99.149,99.149,0,0,1-4.212,23.492l-51.89,169.723Z" transform="translate(4437 -1898.174)"/>
  </g>
</svg>
